<?xml version="1.0" encoding="utf-8"?>
<!-- Generator: Adobe Illustrator 23.0.3, SVG Export Plug-In . SVG Version: 6.00 Build 0)  -->
<svg version="1.1" xmlns="http://www.w3.org/2000/svg" xmlns:xlink="http://www.w3.org/1999/xlink" x="0px" y="0px"
	 viewBox="0 0 106.05 93.21" enable-background="new 0 0 106.05 93.21" xml:space="preserve">
<g id="Layer_8" display="none">
</g>
<g id="_x31__Diversified" display="none">
	<circle display="inline" fill="#4FA0D8" cx="42.61" cy="54.14" r="31.97"/>
	<g id="Layer_17" display="inline">
		<g>
			<polygon fill="none" stroke="#323137" stroke-width="2" points="67.66,16.68 67.66,12.01 63.77,9.8 59.74,12.01 59.74,16.68 
				63.77,18.95 			"/>
			<polygon fill="none" stroke="#323137" stroke-width="2" points="47.42,23.82 43.46,21.55 39.44,23.82 39.44,28.42 43.46,30.69 
				47.42,28.42 			"/>
			<polygon fill="none" stroke="#323137" stroke-width="2" points="43.46,45.03 39.44,47.3 39.44,51.91 43.46,54.18 47.42,51.91 
				47.42,47.3 			"/>
			<polygon fill="none" stroke="#323137" stroke-width="2" points="59.74,59.05 59.74,63.65 63.77,65.86 67.66,63.65 67.66,59.05 
				63.77,56.77 			"/>
			<polygon fill="none" stroke="#323137" stroke-width="2" points="80.11,51.91 84.01,54.18 88.03,51.91 88.03,47.3 84.01,45.03 
				80.11,47.3 			"/>
			<polygon fill="none" stroke="#323137" stroke-width="2" points="84.01,30.69 88.03,28.42 88.03,23.82 84.01,21.55 80.11,23.82 
				80.11,28.42 			"/>
			<line fill="none" stroke="#323137" stroke-width="2" x1="63.77" y1="18.69" x2="63.77" y2="26.95"/>
			<line fill="none" stroke="#323137" stroke-width="2" x1="46.9" y1="28.1" x2="54.3" y2="32.38"/>
			<line fill="none" stroke="#323137" stroke-width="2" x1="46.77" y1="47.69" x2="54.3" y2="43.21"/>
			<line fill="none" stroke="#323137" stroke-width="2" x1="63.77" y1="57.42" x2="63.76" y2="48.65"/>
			<line fill="none" stroke="#323137" stroke-width="2" x1="80.57" y1="47.5" x2="73.17" y2="43.21"/>
			<line fill="none" stroke="#323137" stroke-width="2" x1="80.44" y1="28.42" x2="73.17" y2="32.38"/>
			<polygon fill="none" stroke="#323137" stroke-width="2" points="63.76,26.95 54.3,32.38 54.3,43.21 63.76,48.65 73.17,43.21 
				73.17,32.38 			"/>
		</g>
	</g>
	<g display="inline">
		<polygon fill="#323137" points="67.15,36.05 68.85,36.05 68.85,34.86 67.11,34.86 65.96,34.86 65.96,36.01 65.96,37.19 
			65.96,38.26 65.96,40.63 67.11,40.63 67.11,38.34 67.15,38.34 68.3,38.34 68.3,37.19 67.11,37.19 67.11,36.05 		"/>
		<rect x="59.55" y="34.86" fill="#323137" width="1.15" height="5.77"/>
		<polygon fill="#323137" points="63.97,37.19 62.78,37.19 62.78,34.86 61.63,34.86 61.63,37.19 61.63,38.26 61.63,40.63 
			62.78,40.63 62.78,38.34 62.82,38.34 63.97,38.34 63.97,40.63 65.11,40.63 65.11,38.34 65.11,37.19 65.11,34.86 63.97,34.86 		"/>
	</g>
</g>
<g id="_x32__BuyBurn" display="none">
	<circle display="inline" fill="#4FA0D8" cx="42.61" cy="54.14" r="31.97"/>
	<g id="Layer_16" display="inline">
		<g id="Layer_2_8_">
			<g id="Layer_1-2_7_">
				<path fill="none" stroke="#323137" stroke-width="2" stroke-linecap="round" stroke-linejoin="round" d="M61.17,47.78
					c7.2,3.97,16.28,1.35,20.25-5.85s1.35-16.28-5.85-20.25s-16.28-1.35-20.32,5.92c-2.89,5.31-2.35,11.84,1.48,16.55"/>
				
					<rect x="30.36" y="40.51" fill="none" stroke="#323137" stroke-width="2" stroke-linecap="round" stroke-linejoin="round" width="6.32" height="23.34"/>
				<path fill="none" stroke="#323137" stroke-width="2" stroke-linecap="round" stroke-linejoin="round" d="M54.51,40.64H43.68
					c-1.08,0-1.88,0.87-1.88,1.88l0,0h-5.05V62.1H56.6c1.82,0,3.57-0.81,4.71-2.15L71.6,49.32"/>
				<path fill="none" stroke="#323137" stroke-width="2" stroke-linecap="round" stroke-linejoin="round" d="M40.72,50.4l2.69-2.69
					c2.49-2.49,6.46-2.49,8.95,0l0,0l1.82-1.82c2.49-2.49,6.46-2.49,8.95,0l0,0l0,0L50.41,58.54"/>
				<g>
					<polygon fill="#323137" points="74.22,32.77 74.22,31.43 72.2,31.43 70.86,31.43 70.86,32.77 70.86,34.12 70.86,35.33 
						70.86,38.09 72.2,38.09 72.2,35.46 73.55,35.46 73.55,34.12 72.2,34.12 72.2,32.77 					"/>
					<rect x="63.59" y="31.43" fill="#323137" width="1.35" height="6.66"/>
					<polygon fill="#323137" points="68.64,34.12 67.29,34.12 67.29,31.43 65.95,31.43 65.95,34.12 65.95,35.33 65.95,38.09 
						67.29,38.09 67.29,35.46 68.64,35.46 68.64,38.09 69.98,38.09 69.98,35.46 69.98,34.12 69.98,31.43 68.64,31.43 					"/>
				</g>
			</g>
		</g>
	</g>
</g>
<g id="_x33__Synidication" display="none">
	<circle display="inline" fill="#4FA0D8" cx="42.61" cy="54.14" r="31.97"/>
	<g id="Layer_21" display="inline">
		<g id="Layer_2_14_">
			<g id="Layer_1-2_13_">
				<path fill="none" stroke="#323137" stroke-width="2" stroke-linecap="round" stroke-linejoin="round" d="M53,51.02h-6.59
					c-1.2,0-2.2-1-2.2-2.2v-6.59"/>
				<polyline fill="none" stroke="#323137" stroke-width="2" stroke-linecap="round" stroke-linejoin="round" points="50.81,48.82 
					53,51.02 50.81,53.21 				"/>
				<path fill="none" stroke="#323137" stroke-width="2" stroke-linecap="round" stroke-linejoin="round" d="M61.72,24.66h6.59
					c1.2,0,2.2,1,2.2,2.2v6.59"/>
				<polyline fill="none" stroke="#323137" stroke-width="2" stroke-linecap="round" stroke-linejoin="round" points="63.98,26.86 
					61.72,24.66 63.98,22.47 				"/>
				<polygon fill="none" stroke="#323137" stroke-width="2" stroke-linecap="round" stroke-linejoin="round" points="57.4,32.05 
					57.4,17.28 44.62,9.89 31.78,17.28 31.78,32.05 44.62,39.44 				"/>
				<polygon fill="none" stroke="#323137" stroke-width="2" stroke-linecap="round" stroke-linejoin="round" points="83.28,58.4 
					83.28,43.63 70.57,36.24 57.73,43.63 57.73,58.4 70.57,65.79 				"/>
			</g>
		</g>
	</g>
	<polygon display="inline" fill="#323137" points="73.1,48.52 73.1,46.79 71.37,46.79 71.37,45.06 69.64,45.06 69.64,46.79 
		67.91,46.79 67.91,50.85 71.44,52.58 71.44,53.85 67.91,53.85 67.91,55.58 69.64,55.58 69.64,57.37 71.37,57.37 71.37,55.58 
		73.1,55.58 73.1,51.52 69.64,49.79 69.64,48.52 	"/>
	<g display="inline">
		<polygon fill="#323137" points="51.64,22 51.64,20.27 48.98,20.27 47.25,20.27 47.25,22 47.25,23.8 47.25,25.46 47.25,29.06 
			48.98,29.06 48.98,25.53 50.71,25.53 50.71,23.8 48.98,23.8 48.98,22 		"/>
		<rect x="37.53" y="20.27" fill="#323137" width="1.73" height="8.78"/>
		<polygon fill="#323137" points="44.19,23.8 42.39,23.8 42.39,20.27 40.66,20.27 40.66,23.8 40.66,25.46 40.66,29.06 42.39,29.06 
			42.39,25.53 44.19,25.53 44.19,29.06 45.92,29.06 45.92,25.53 45.92,23.8 45.92,20.27 44.19,20.27 		"/>
	</g>
</g>
<g id="_x34__Due">
	<circle fill="#4FA0D8" cx="42.61" cy="54.14" r="31.97"/>
	<g id="Layer_18">
		<g id="Layer_2_9_">
			<g id="Layer_1-2_8_">
				<polyline fill="none" stroke="#323137" stroke-width="2" points="73.33,22.5 78.11,22.5 78.11,54.26 				"/>
				<polyline fill="none" stroke="#323137" stroke-width="2" points="63.73,62.81 47.11,62.81 47.11,22.5 51.89,22.5 				"/>
				<path fill="none" stroke="#323137" stroke-width="2" stroke-linecap="round" stroke-linejoin="round" d="M51.89,19.66h-6.62
					c-1.49,0-2.64,1.21-2.7,2.64l0,0v41.8c0,1.49,1.21,2.64,2.64,2.64l0,0h17.4"/>
				<path fill="none" stroke="#323137" stroke-width="2" stroke-linecap="round" stroke-linejoin="round" d="M82.59,55.3V22.36
					c0-1.49-1.21-2.64-2.64-2.7c0,0,0,0-0.06,0h-6.56"/>
				<path fill="none" stroke="#323137" stroke-width="2" stroke-linecap="round" stroke-linejoin="round" d="M73.33,18.11h-5.34
					c-0.11-2.99-2.59-5.29-5.57-5.17c-2.82,0.11-5.06,2.36-5.17,5.17h-5.34v7.61h21.44V18.11z M62.58,19.14
					c-0.98,0-1.78-0.8-1.78-1.78c0-0.98,0.8-1.78,1.78-1.78s1.78,0.8,1.78,1.78l0,0C64.42,18.34,63.62,19.14,62.58,19.14
					L62.58,19.14z"/>
				<polyline fill="none" stroke="#323137" stroke-width="2" stroke-linejoin="round" points="55.46,30.77 57.18,32.55 60.8,28.98 
									"/>
				<line fill="none" stroke="#323137" stroke-width="2" stroke-linejoin="round" x1="62.58" y1="32.55" x2="69.77" y2="32.55"/>
				<polyline fill="none" stroke="#323137" stroke-width="2" stroke-linejoin="round" points="55.46,41.12 57.18,42.9 60.8,39.28 
									"/>
				<line fill="none" stroke="#323137" stroke-width="2" stroke-linejoin="round" x1="62.58" y1="42.89" x2="69.77" y2="42.89"/>
				<polyline fill="none" stroke="#323137" stroke-width="2" stroke-linejoin="round" points="55.46,51.44 57.18,53.23 60.8,49.6 
									"/>
				<line fill="none" stroke="#323137" stroke-width="2" stroke-linejoin="round" x1="62.58" y1="53.23" x2="69.77" y2="53.23"/>
				
					<circle fill="none" stroke="#323137" stroke-width="2" stroke-linecap="round" stroke-linejoin="round" cx="75.97" cy="67.65" r="13.39"/>
				<polyline fill="none" stroke="#323137" stroke-width="2" stroke-linecap="round" stroke-linejoin="round" points="69.65,67.65 
					73.9,71.91 82.35,63.4 				"/>
			</g>
		</g>
	</g>
</g>
<g id="_x35__Annual" display="none">
	<circle display="inline" fill="#4FA0D8" cx="42.61" cy="54.14" r="31.97"/>
	<g id="Layer_1-2_12_" display="inline">
		<rect x="53.05" y="52.54" fill="none" stroke="#323137" stroke-width="2" width="20.55" height="4.82"/>
		<rect x="55.05" y="47.72" fill="none" stroke="#323137" stroke-width="2" width="20.55" height="4.82"/>
		<rect x="53.05" y="42.9" fill="none" stroke="#323137" stroke-width="2" width="20.55" height="4.82"/>
		<rect x="55.05" y="38.08" fill="none" stroke="#323137" stroke-width="2" width="20.55" height="4.82"/>
		<rect x="53.05" y="33.34" fill="none" stroke="#323137" stroke-width="2" width="20.55" height="4.82"/>
		<rect x="55.05" y="28.59" fill="none" stroke="#323137" stroke-width="2" width="20.55" height="4.82"/>
		<rect x="53.05" y="23.77" fill="none" stroke="#323137" stroke-width="2" width="20.55" height="4.82"/>
		
			<circle fill="none" stroke="#323137" stroke-width="2" stroke-linecap="round" stroke-linejoin="round" cx="63.61" cy="41.13" r="27.99"/>
		
			<line fill="none" stroke="#323137" stroke-width="2" stroke-linecap="round" stroke-linejoin="round" x1="81.75" y1="60.76" x2="43.55" y2="22.42"/>
	</g>
</g>
<g id="IHF_Network" display="none">
	<circle display="inline" fill="#4FA0D8" cx="42.61" cy="54.14" r="31.97"/>
	<g display="inline">
		<path fill="none" d="M63.24,12.38c-0.01,0.01-0.03,0.02-0.04,0.03c0.01,0,0.03,0,0.04,0V12.38z"/>
		<path fill="none" stroke="#323137" stroke-width="2" stroke-linejoin="round" stroke-miterlimit="10" d="M63.24,68.2v-7.92h-8.92
			c2.37,3.6,5.39,6.61,8.85,8.82c3.46-2.21,6.48-5.22,8.85-8.82h-8.79V68.2z"/>
		<polyline fill="none" stroke="#323137" stroke-width="2" stroke-miterlimit="10" points="77.17,34.26 63.24,34.26 63.24,47.27 
			77.17,47.27 		"/>
		<path fill="none" stroke="#323137" stroke-width="2" stroke-miterlimit="10" d="M63.24,60.29h8.79c2.49-3.78,4.28-8.2,5.14-13.01
			H63.24V60.29z"/>
		<path fill="none" stroke="#323137" stroke-width="2" stroke-linecap="round" stroke-linejoin="round" stroke-miterlimit="10" d="
			M63.24,12.47v8.78h8.79C69.67,17.67,66.68,14.67,63.24,12.47z"/>
		<path fill="none" stroke="#323137" stroke-width="2" stroke-miterlimit="10" d="M63.24,34.26h13.93
			c-0.86-4.81-2.64-9.23-5.14-13.01h-8.79V34.26z"/>
		<path fill="none" stroke="#323137" stroke-width="2" stroke-miterlimit="10" d="M63.24,34.26H49.19c-0.37,2.1-0.57,4.28-0.57,6.51
			s0.2,4.4,0.57,6.51h14.06V34.26z"/>
		<path fill="none" stroke="#323137" stroke-width="2" stroke-miterlimit="10" d="M63.24,21.25h-8.92
			c-2.49,3.78-4.28,8.2-5.14,13.01h14.06V21.25z"/>
		<path fill="none" stroke="#323137" stroke-width="2" stroke-linejoin="round" stroke-miterlimit="10" d="M54.33,21.25h8.92v-8.78
			c-0.02-0.01-0.04-0.03-0.06-0.04"/>
		<path fill="none" stroke="#323137" stroke-width="2" stroke-linejoin="round" stroke-miterlimit="10" stroke-dasharray="2" d="
			M63.18,12.42c-3.46,2.21-6.48,5.22-8.85,8.82"/>
		<polyline fill="none" stroke="#323137" stroke-width="2" stroke-miterlimit="10" points="54.33,60.29 63.24,60.29 63.24,47.27 
			49.19,47.27 		"/>
		<path fill="none" stroke="#323137" stroke-width="2" stroke-miterlimit="10" stroke-dasharray="2" d="M49.19,47.27
			c0.86,4.81,2.64,9.23,5.14,13.01"/>
		<path fill="none" stroke="#323137" stroke-width="2" stroke-linejoin="round" stroke-miterlimit="10" d="M83.8,21.25
			c-5.17-5.44-12.46-8.84-20.56-8.84v0.06"/>
		<path fill="none" stroke="#323137" stroke-width="2" stroke-linejoin="round" stroke-miterlimit="10" d="M63.16,69.12
			c0.01,0,0.03,0,0.04,0c-0.01,0-0.01-0.01-0.02-0.01C63.17,69.11,63.17,69.12,63.16,69.12z"/>
		<path fill="none" stroke="#323137" stroke-width="2" stroke-linejoin="round" stroke-miterlimit="10" d="M63.18,69.11
			c0.01,0,0.01,0.01,0.02,0.01c0.01,0,0.03,0,0.04,0c8.1,0,15.39-3.4,20.56-8.84H72.03C69.66,63.89,66.64,66.9,63.18,69.11z"/>
		<path fill="none" stroke="#323137" stroke-width="2" stroke-miterlimit="10" d="M72.03,60.29H83.8c3.4-3.58,5.87-8.04,7.04-13.01
			H77.17C76.31,52.08,74.53,56.51,72.03,60.29z"/>
		<path fill="none" stroke="#323137" stroke-width="2" stroke-miterlimit="10" d="M77.17,34.26h13.67
			c-1.17-4.97-3.64-9.43-7.04-13.01"/>
		<path fill="none" stroke="#323137" stroke-width="2" stroke-miterlimit="10" d="M77.17,47.27h13.67c0.49-2.09,0.76-4.27,0.76-6.51
			s-0.27-4.42-0.76-6.51H77.17"/>
		<path fill="none" stroke="#323137" stroke-width="2" stroke-linejoin="round" stroke-miterlimit="10" d="M42.68,60.29
			c5.15,5.42,12.41,8.81,20.48,8.84c0.01,0,0.01-0.01,0.02-0.01c-3.46-2.21-6.48-5.22-8.85-8.82"/>
		<path fill="none" stroke="#323137" stroke-width="2" stroke-linejoin="round" stroke-miterlimit="10" d="M63.2,12.41
			c-0.01,0-0.03,0-0.04,0c0.01,0,0.01,0.01,0.02,0.01C63.19,12.42,63.19,12.41,63.2,12.41z"/>
		<path fill="none" stroke="#323137" stroke-width="2" stroke-linejoin="round" stroke-miterlimit="10" d="M63.18,12.42
			c-0.01,0-0.01-0.01-0.02-0.01c-8.06,0.02-15.33,3.41-20.48,8.84h11.64"/>
		<path fill="none" stroke="#323137" stroke-width="2" stroke-miterlimit="10" d="M49.19,47.27H35.64
			c1.17,4.97,3.64,9.43,7.04,13.01"/>
		<path fill="none" stroke="#323137" stroke-width="2" stroke-miterlimit="10" d="M54.33,60.29"/>
		<path fill="none" stroke="#323137" stroke-width="2" stroke-linejoin="round" stroke-miterlimit="10" d="M63.24,12.41
			c-0.01,0-0.03,0-0.04,0c-0.01,0-0.01,0.01-0.02,0.01C63.2,12.44,63.24,12.41,63.24,12.41z"/>
		<path fill="none" stroke="#323137" stroke-width="2" stroke-miterlimit="10" d="M54.33,21.25H42.68
			c-3.4,3.58-5.87,8.04-7.04,13.01h13.54C50.04,29.45,51.83,25.03,54.33,21.25z"/>
		<path fill="none" stroke="#323137" stroke-width="2" stroke-miterlimit="10" d="M48.62,40.77c0-2.23,0.2-4.4,0.57-6.51H35.64
			c-0.49,2.09-0.76,4.27-0.76,6.51s0.27,4.42,0.76,6.51h13.54C48.81,45.17,48.62,43,48.62,40.77z"/>
		<path fill="none" stroke="#323137" stroke-width="2" stroke-miterlimit="10" stroke-dasharray="2" d="M76.88,47.27
			c0.37-2.1,0.57-4.28,0.57-6.51s-0.2-4.4-0.57-6.51"/>
	</g>
</g>
<g id="IHF_AI" display="none">
	<circle display="inline" fill="#4FA0D8" cx="42.61" cy="54.14" r="31.97"/>
	<g id="Layer_15" display="inline">
		<g>
			<circle fill="none" stroke="#323137" stroke-width="2" cx="59.1" cy="37.14" r="12.61"/>
			<circle fill="none" stroke="#323137" stroke-width="2" cx="81.83" cy="37.14" r="1.66"/>
			<circle fill="none" stroke="#323137" stroke-width="2" cx="36.37" cy="37.14" r="1.66"/>
			<circle fill="none" stroke="#323137" stroke-width="2" cx="59.1" cy="14.41" r="1.66"/>
			<circle fill="none" stroke="#323137" stroke-width="2" cx="82.59" cy="14.41" r="1.66"/>
			<line fill="none" stroke="#323137" stroke-width="2" x1="38.03" y1="37.14" x2="46.43" y2="37.14"/>
			<line fill="none" stroke="#323137" stroke-width="2" x1="59.1" y1="16.06" x2="59.1" y2="24.47"/>
			<line fill="none" stroke="#323137" stroke-width="2" x1="71.71" y1="37.14" x2="80.05" y2="37.14"/>
			<polyline fill="none" stroke="#323137" stroke-width="2" points="72.53,28.73 82.59,28.73 82.59,16.06 			"/>
			<polyline fill="none" stroke="#323137" stroke-width="2" points="71.39,21.95 71.39,14.41 63.24,14.41 			"/>
			<line fill="none" stroke="#323137" stroke-width="2" x1="76.39" y1="21.95" x2="76.39" y2="14.41"/>
			<circle fill="none" stroke="#323137" stroke-width="2" cx="36.37" cy="14.41" r="1.66"/>
			<polyline fill="none" stroke="#323137" stroke-width="2" points="36.37,16.06 36.37,28.73 46.43,28.73 			"/>
			<polyline fill="none" stroke="#323137" stroke-width="2" points="55.73,14.41 47.57,14.41 47.57,21.95 			"/>
			<line fill="none" stroke="#323137" stroke-width="2" x1="42.58" y1="14.41" x2="42.58" y2="21.95"/>
			<circle fill="none" stroke="#323137" stroke-width="2" cx="59.1" cy="59.8" r="1.66"/>
			<circle fill="none" stroke="#323137" stroke-width="2" cx="82.59" cy="59.8" r="1.66"/>
			<line fill="none" stroke="#323137" stroke-width="2" x1="59.1" y1="49.74" x2="59.1" y2="58.15"/>
			<polyline fill="none" stroke="#323137" stroke-width="2" points="82.59,58.15 82.59,45.48 72.53,45.48 			"/>
			<polyline fill="none" stroke="#323137" stroke-width="2" points="63.24,59.8 71.39,59.8 71.39,52.26 			"/>
			<line fill="none" stroke="#323137" stroke-width="2" x1="76.39" y1="59.8" x2="76.39" y2="52.26"/>
			<circle fill="none" stroke="#323137" stroke-width="2" cx="36.37" cy="59.8" r="1.66"/>
			<polyline fill="none" stroke="#323137" stroke-width="2" points="46.43,45.48 36.37,45.48 36.37,58.15 			"/>
			<polyline fill="none" stroke="#323137" stroke-width="2" points="47.57,52.26 47.57,59.8 55.73,59.8 			"/>
			<line fill="none" stroke="#323137" stroke-width="2" x1="42.58" y1="52.26" x2="42.58" y2="59.8"/>
		</g>
	</g>
	<g display="inline">
		<path fill="#323137" d="M56.49,32.87h-1.66v1.72v1.66v1.72v3.31h1.66v-3.31h0.06h1.59v3.31h1.66v-3.31v-1.72v-1.59v-1.78h-1.66
			H56.49z M58.14,36.25h-1.66v-1.59l0.06,0h1.59V36.25z"/>
		<rect x="61.2" y="32.87" fill="#323137" width="1.66" height="8.4"/>
	</g>
</g>
</svg>
